<svg width="35" height="35" viewBox="0 0 47 60" fill="none" xmlns="http://www.w3.org/2000/svg">
<path d="M16.8875 29.25L3.05176e-05 0L24.3876 0V5.25L27.8876 0H33.775L16.8875 29.25Z" fill="#939394"/>
<path d="M35.0985 1.65234L13.6765 37.8476" stroke="#939394" stroke-width="2" stroke-linecap="square"/>
<line x1="37.428" y1="25.7236" x2="19.2684" y2="59.4978" stroke="#939394" stroke-width="2"/>
<path d="M17.1867 39.3698C17.0575 39.2896 16.9797 39.1799 16.953 39.0409C16.9238 38.8909 16.9535 38.7446 17.0421 38.6019L18.8913 35.6255C19.1699 35.177 19.5121 34.8386 19.9176 34.6103C20.3164 34.3777 20.7448 34.2718 21.2028 34.2926C21.654 34.3093 22.097 34.4527 22.5319 34.7228C22.9804 35.0015 23.3154 35.3415 23.537 35.7429C23.7627 36.1374 23.8597 36.565 23.8279 37.0255C23.796 37.4861 23.6387 37.944 23.3558 38.3993L21.798 40.9067L23.7652 42.129C24.0234 42.2894 24.1698 42.4934 24.2044 42.7409C24.239 42.9884 24.1592 43.2685 23.965 43.5811L17.1867 39.3698ZM22.5098 37.8737C22.7631 37.4659 22.8413 37.0672 22.7445 36.6773C22.6408 36.2833 22.3715 35.9512 21.9366 35.681C21.5153 35.4192 21.1064 35.3347 20.7097 35.4273C20.3105 35.5089 19.9864 35.7502 19.7373 36.1511L18.1795 38.6586L20.9519 40.3811L22.5098 37.8737ZM21.4848 32.4517C21.3557 32.3715 21.2778 32.2619 21.2511 32.1229C21.2219 31.9729 21.2516 31.8265 21.3402 31.6838L23.0881 28.8705C23.4976 28.2114 24.0164 27.8085 24.6443 27.6618C25.2697 27.5041 25.9018 27.6237 26.5406 28.0205C27.3424 28.5187 27.6924 29.2212 27.5905 30.128L27.6211 30.147C27.9402 29.9214 28.2829 29.8094 28.6493 29.811C29.0088 29.8083 29.3754 29.9231 29.7492 30.1553L30.7991 30.8075C31.0573 30.968 31.2037 31.172 31.2383 31.4195C31.2728 31.667 31.193 31.9471 30.9988 32.2596L29.2151 31.1514C28.8141 30.9023 28.4548 30.8062 28.1369 30.863C27.8165 30.9088 27.5465 31.1084 27.327 31.4617L25.8451 33.8469L28.057 35.2211C28.3152 35.3815 28.4616 35.5855 28.4962 35.833C28.535 36.0738 28.4573 36.3504 28.2631 36.663L21.4848 32.4517ZM26.4633 31.0099C26.6955 30.6362 26.7637 30.2688 26.6677 29.9078C26.576 29.5401 26.3297 29.2316 25.9288 28.9825C25.5211 28.7292 25.143 28.6403 24.7947 28.7159C24.4464 28.7914 24.1498 29.0263 23.9049 29.4204L22.461 31.7444L25.0195 33.3339L26.4633 31.0099ZM25.7025 25.663C25.5734 25.5828 25.4976 25.4698 25.4752 25.324C25.4459 25.174 25.4735 25.031 25.558 24.8951L28.3634 20.3797C28.6488 20.557 28.8236 20.7456 28.8877 20.9456C28.9518 21.1455 28.9079 21.3678 28.7559 21.6125L26.6851 24.9456L28.9683 26.3641L30.7415 23.5101C31.0269 23.6874 31.2017 23.876 31.2658 24.076C31.3299 24.2759 31.2881 24.4948 31.1404 24.7327L29.8041 26.8834L32.1485 28.3399L34.3523 24.7928C34.5001 24.5549 34.6778 24.4205 34.8855 24.3894C35.0932 24.3583 35.3397 24.4314 35.6251 24.6087L32.693 29.3281C32.6086 29.464 32.496 29.5542 32.3554 29.5986C32.208 29.6389 32.0697 29.6189 31.9406 29.5387L25.7025 25.663ZM37.8674 21.2044C37.5127 21.7752 37.123 22.2206 36.6981 22.5405C36.2775 22.8537 35.8638 23.0346 35.4568 23.0832C35.0499 23.1318 34.6902 23.0589 34.3776 22.8647C34.1194 22.7043 33.9645 22.5139 33.9131 22.2936C33.8548 22.069 33.9122 21.8174 34.0853 21.5388C34.6629 21.8977 35.2123 21.9988 35.7334 21.8422C36.2477 21.6814 36.699 21.2885 37.0874 20.6633C37.459 20.0653 37.6454 19.5454 37.6468 19.1036C37.6413 18.6576 37.4416 18.3121 37.0474 18.0672C36.8096 17.9195 36.5779 17.8603 36.3524 17.8898C36.1244 17.9082 35.8673 18.0263 35.5813 18.2442C35.2927 18.451 34.9259 18.7835 34.4811 19.2418C33.9568 19.7825 33.4923 20.1815 33.0877 20.4387C32.6762 20.6916 32.2886 20.8228 31.9248 20.8323C31.5611 20.8417 31.1889 20.7282 30.8084 20.4918C30.4278 20.2554 30.1603 19.9432 30.0058 19.5552C29.8487 19.1562 29.8144 18.7111 29.903 18.2199C29.9916 17.7287 30.1984 17.2214 30.5235 16.6982C30.8317 16.2021 31.1775 15.8048 31.5608 15.5061C31.9416 15.1964 32.3286 15.0131 32.7219 14.956C33.1127 14.888 33.4677 14.9532 33.7871 15.1516C33.9842 15.2741 34.1004 15.4357 34.1357 15.6366C34.1684 15.8265 34.1024 16.0539 33.9378 16.3189C33.3749 16.0728 32.8838 16.022 32.4644 16.1664C32.0493 16.304 31.6707 16.6481 31.3287 17.1985C30.9994 17.7285 30.8412 18.1953 30.8542 18.599C30.8604 18.9984 31.0333 19.3036 31.3731 19.5147C31.6109 19.6625 31.8396 19.7339 32.0593 19.7291C32.2763 19.7133 32.5173 19.6134 32.7822 19.4295C33.0514 19.2388 33.3805 18.9441 33.7695 18.5454C34.3496 17.9451 34.8538 17.505 35.2822 17.2248C35.7147 16.9379 36.1184 16.7884 36.4932 16.7764C36.868 16.7643 37.249 16.8787 37.6364 17.1193C38.2547 17.5035 38.5836 18.0657 38.6229 18.8059C38.6554 19.5419 38.4035 20.3414 37.8674 21.2044ZM41.9428 14.6446C41.5882 15.2154 41.1985 15.6608 40.7736 15.9808C40.353 16.294 39.9392 16.4749 39.5323 16.5235C39.1254 16.572 38.7657 16.4992 38.4531 16.305C38.1949 16.1446 38.04 15.9542 37.9885 15.7339C37.9303 15.5093 37.9877 15.2577 38.1608 14.9791C38.7384 15.338 39.2877 15.4391 39.8088 15.2825C40.3232 15.1217 40.7745 14.7287 41.1629 14.1036C41.5344 13.5056 41.7209 12.9857 41.7222 12.5439C41.7168 12.0978 41.517 11.7524 41.1229 11.5075C40.8851 11.3598 40.6534 11.3006 40.4279 11.33C40.1999 11.3485 39.9428 11.4666 39.6568 11.6844C39.3681 11.8913 39.0014 12.2238 38.5566 12.6821C38.0323 13.2228 37.5678 13.6218 37.1631 13.879C36.7517 14.1319 36.3641 14.2631 36.0003 14.2726C35.6365 14.282 35.2644 14.1685 34.8839 13.9321C34.5033 13.6957 34.2358 13.3835 34.0813 12.9955C33.9242 12.5965 33.8899 12.1514 33.9785 11.6602C34.0671 11.169 34.2739 10.6617 34.599 10.1385C34.9072 9.64243 35.2529 9.24507 35.6363 8.94639C36.017 8.6367 36.4041 8.45335 36.7974 8.39633C37.1882 8.32829 37.5432 8.39349 37.8626 8.59191C38.0597 8.71435 38.1759 8.876 38.2112 9.07689C38.2439 9.26675 38.1779 9.49419 38.0133 9.75921C37.4504 9.5131 36.9593 9.46226 36.5399 9.60669C36.1247 9.74433 35.7462 10.0884 35.4042 10.6388C35.0749 11.1688 34.9167 11.6356 34.9297 12.0392C34.9358 12.4386 35.1088 12.7439 35.4486 12.955C35.6864 13.1027 35.9151 13.1742 36.1347 13.1694C36.3518 13.1535 36.5928 13.0537 36.8577 12.8698C37.1269 12.6791 37.4559 12.3844 37.845 11.9857C38.4251 11.3854 38.9293 10.9452 39.3577 10.6651C39.7902 10.3782 40.1939 10.2287 40.5687 10.2167C40.9435 10.2046 41.3245 10.3189 41.7119 10.5596C42.3302 10.9438 42.6591 11.506 42.6983 12.2462C42.7308 12.9821 42.479 13.7816 41.9428 14.6446Z" fill="#939394"/>
</svg>
